<mxfile host="app.diagrams.net" modified="2024-02-27T15:16:47.629Z" agent="Mozilla/5.0 (Windows NT 10.0; Win64; x64) AppleWebKit/537.36 (KHTML, like Gecko) Chrome/121.0.0.0 Safari/537.36 OPR/107.0.0.0" version="23.1.5" etag="7rsn7XcvyLAemGxWLabm" type="github">
  <diagram name="PÃ¡gina-1" id="3idB-eHbfF8yBFn3mW-8">
    <mxGraphModel>
      <root>
        <mxCell id="0" />
        <mxCell id="1" parent="0" />
      </root>
    </mxGraphModel>
  </diagram>
</mxfile>
